<?xml version="1.0" encoding="utf-8"?>
<!-- Generator: Adobe Illustrator 23.0.0, SVG Export Plug-In . SVG Version: 6.00 Build 0)  -->
<svg version="1.1" xmlns="http://www.w3.org/2000/svg" xmlns:xlink="http://www.w3.org/1999/xlink" x="0px" y="0px"
	 viewBox="0 0 125 60" style="enable-background:new 0 0 125 60;" xml:space="preserve">
<style type="text/css">
	.st0{fill:#D0191D;}
	.st1{fill:#FFFFFF;}
	.st2{fill:#666666;}
	.st3{display:none;}
	.st4{display:inline;}
</style>
<g id="logo">
	<path class="st0" d="M0.1,16H125v44H0.1V16z"/>
	<g>
		<path class="st1" d="M22.3,47v-9.2l9.2,9.2H22.3z M19.7,47h-6.5V28.6h6.5V47z M22.3,28.7c2.3,0,4.4-0.1,5.5,1.5
			c0.2,0.3,0.4,0.6,0.6,0.9c0,0,1.2,2.3-0.4,4.5c0,0.1-0.1,0.2-0.2,0.3c-1.6,2-4.1,1.4-5.5,1.5L22.3,28.7L22.3,28.7z M9.8,50.2h23.5
			V25.8H9.8L9.8,50.2z"/>
		<path class="st1" d="M48.4,36.4c0-1.2-0.7-2.2-1.7-2.7c-0.4-0.2-0.9-0.4-2.3-0.4h-2.5v9.5h1.2v-8.4h1.5c0.7,0,1.2,0.1,1.7,0.3
			c0.5,0.3,0.9,1,0.9,1.6c0,0.7-0.4,1.5-1.4,1.8c-0.4,0.1-0.8,0.1-1.9,0.1h-0.3l3.3,4.4h1.5l-2.6-3.4C47.5,39.1,48.4,37.7,48.4,36.4
			L48.4,36.4z"/>
		<path class="st1" d="M49.6,42.7h5.3v-1.1h-4.1v-3.1h4v-1.1h-4v-3h4.1v-1.1h-5.3V42.7z"/>
		<path class="st1" d="M60.1,33.3l-4,9.5h1.2l1.3-3.1h4.1l1.3,3.1h1.3l-4.1-9.5H60.1z M62.3,38.5h-3.2l1.6-3.7L62.3,38.5z"/>
		<path class="st1" d="M67.7,33.3h-1.2v9.5h5v-1.1h-3.8V33.3z"/>
		<path class="st1" d="M71.2,34.4h2.1v8.4h1.2v-8.4h2.1v-1.1h-5.4V34.4z"/>
		<path class="st1" d="M81.9,33.1c-2.4,0-5,1.9-5,4.9c0,2.6,2.3,4.8,5,4.8c2.8,0,5-2.2,5-4.9S84.6,33.1,81.9,33.1z M81.9,41.8
			c-2.1,0-3.8-1.7-3.8-3.7c0-2.1,1.7-3.8,3.8-3.8c2.1,0,3.8,1.7,3.8,3.8S84,41.8,81.9,41.8L81.9,41.8z"/>
		<path class="st1" d="M94.9,36.4c0-1.2-0.7-2.2-1.7-2.7c-0.4-0.2-0.9-0.4-2.3-0.4h-2.5v9.5h1.2v-8.4h1.5c0.7,0,1.2,0.1,1.7,0.3
			c0.5,0.3,0.9,1,0.9,1.6c0,0.7-0.4,1.5-1.4,1.8c-0.4,0.1-0.8,0.1-1.9,0.1h-0.3l3.3,4.4h1.5l-2.6-3.4C94,39.1,94.9,37.7,94.9,36.4
			L94.9,36.4z"/>
		<path class="st1" d="M96.7,41.6h1.2v1.1h-1.2V41.6z"/>
		<path class="st1" d="M105.9,40.5c-0.2,0.4-0.8,1.3-2.3,1.3c-1.5,0-2.7-1.2-2.7-2.7c0-1.7,1.4-2.6,2.7-2.6c1,0,1.8,0.5,2.3,1.4
			l0,0.1h1.2l-0.1-0.2c-0.7-1.7-2.3-2.3-3.5-2.3c-2.1,0-3.8,1.7-3.8,3.7c0,2.1,1.7,3.7,3.8,3.7c1.6,0,2.7-0.7,3.5-2.2l0.1-0.2
			L105.9,40.5L105.9,40.5z"/>
		<path class="st1" d="M114.5,35.7v1c-0.8-1-2-1.1-2.5-1.1c-2.4,0-3.8,1.9-3.8,3.7c0,2.1,1.7,3.7,3.8,3.7c0.5,0,1.7-0.1,2.5-1.1v1
			h1.1v-7.1L114.5,35.7L114.5,35.7z M112,41.8c-1.5,0-2.6-1.1-2.6-2.6c0-1.8,1.3-2.7,2.6-2.7c1.4,0,2.6,1.2,2.6,2.7
			C114.6,40.7,113.4,41.8,112,41.8z"/>
		<path class="st1" d="M119,34.8c0,0.7-0.6,1.2-1.2,1.2c-0.7,0-1.2-0.6-1.2-1.2s0.5-1.2,1.2-1.2C118.4,33.6,119,34.1,119,34.8z
			 M116.7,34.8c0,0.6,0.5,1.1,1.1,1.1c0.6,0,1.1-0.5,1.1-1.1c0-0.6-0.5-1.1-1.1-1.1C117.1,33.7,116.7,34.2,116.7,34.8z M117.8,34.1
			c0.1,0,0.5,0,0.5,0.4c0,0.1-0.1,0.3-0.3,0.3c0.2,0.1,0.2,0.2,0.2,0.4c0,0.2,0,0.3,0,0.3h-0.2c0,0,0-0.1,0-0.3c0-0.2,0-0.3-0.4-0.3
			h-0.4v0.6h-0.2v-1.4L117.8,34.1L117.8,34.1z M117.4,34.8h0.4c0.1,0,0.4,0,0.4-0.3c0-0.2-0.3-0.2-0.4-0.2h-0.4L117.4,34.8
			L117.4,34.8z"/>
	</g>
</g>
<g id="text_x5F_en">
	<g>
		<path class="st2" d="M1.6,3.9h2.2c1.8,0,3,0.6,3,2.3c0,1.7-1.2,2.4-2.9,2.4H2.6v3.1h-1V3.9z M3.8,7.8c1.4,0,2-0.5,2-1.6
			c0-1.1-0.7-1.5-2.1-1.5H2.6v3.1H3.8z"/>
		<path class="st2" d="M7.6,8.8c0-1.9,1.3-3.1,2.7-3.1S13,6.9,13,8.8c0,1.9-1.3,3.1-2.7,3.1S7.6,10.8,7.6,8.8z M12,8.8
			c0-1.3-0.7-2.2-1.7-2.2S8.6,7.5,8.6,8.8s0.7,2.2,1.7,2.2S12,10.2,12,8.8z"/>
		<path class="st2" d="M13.8,5.9h1l0.9,3.4c0.1,0.6,0.2,1.1,0.3,1.6h0c0.1-0.5,0.3-1.1,0.4-1.6l0.9-3.4h1l0.9,3.4
			c0.1,0.6,0.3,1.1,0.4,1.6h0c0.1-0.5,0.2-1.1,0.4-1.6l0.8-3.4h0.9l-1.6,5.8h-1.2l-0.8-3.1c-0.1-0.6-0.3-1.1-0.4-1.7h0
			c-0.1,0.6-0.2,1.1-0.4,1.7l-0.8,3.1h-1.2L13.8,5.9z"/>
		<path class="st2" d="M22.6,8.8c0-1.9,1.3-3.1,2.6-3.1c1.5,0,2.3,1.1,2.3,2.7c0,0.2,0,0.4,0,0.6h-3.9c0.1,1.2,0.8,2,1.9,2
			c0.6,0,1-0.2,1.5-0.5l0.4,0.6c-0.5,0.3-1.1,0.6-1.9,0.6C23.9,11.9,22.6,10.8,22.6,8.8z M26.7,8.4c0-1.2-0.5-1.8-1.4-1.8
			c-0.8,0-1.6,0.7-1.7,1.8H26.7z"/>
		<path class="st2" d="M29,5.9h0.8L29.9,7h0c0.4-0.7,1-1.2,1.7-1.2c0.3,0,0.4,0,0.6,0.1l-0.2,0.9c-0.2-0.1-0.3-0.1-0.6-0.1
			C31,6.7,30.4,7,30,8v3.7h-1V5.9z"/>
		<path class="st2" d="M32.6,8.8c0-1.9,1.3-3.1,2.6-3.1c1.5,0,2.3,1.1,2.3,2.7c0,0.2,0,0.4,0,0.6h-3.9c0.1,1.2,0.8,2,1.9,2
			c0.6,0,1-0.2,1.5-0.5l0.4,0.6c-0.5,0.3-1.1,0.6-1.9,0.6C33.9,11.9,32.6,10.8,32.6,8.8z M36.7,8.4c0-1.2-0.5-1.8-1.4-1.8
			c-0.8,0-1.6,0.7-1.7,1.8H36.7z"/>
		<path class="st2" d="M38.6,8.8c0-1.9,1.2-3.1,2.5-3.1c0.7,0,1.1,0.3,1.6,0.7l0-1V3.2h1v8.5h-0.8l-0.1-0.7h0
			c-0.5,0.5-1.1,0.8-1.8,0.8C39.6,11.9,38.6,10.8,38.6,8.8z M42.7,10.3V7.2c-0.5-0.4-0.9-0.6-1.4-0.6c-0.9,0-1.7,0.9-1.7,2.2
			c0,1.4,0.6,2.2,1.6,2.2C41.8,11.1,42.2,10.8,42.7,10.3z"/>
		<path class="st2" d="M49,11.1L49,11.1l-0.1,0.6h-0.8V3.2h1v2.3l0,1c0.5-0.5,1.2-0.8,1.8-0.8c1.5,0,2.3,1.2,2.3,3
			c0,2-1.2,3.2-2.5,3.2C50.1,11.9,49.5,11.6,49,11.1z M52.2,8.8c0-1.3-0.4-2.1-1.5-2.1c-0.5,0-1,0.3-1.6,0.8v3.1
			c0.5,0.4,1,0.6,1.4,0.6C51.5,11.1,52.2,10.2,52.2,8.8z"/>
		<path class="st2" d="M54.1,14.1l0.2-0.8c0.1,0,0.3,0.1,0.4,0.1c0.7,0,1.1-0.5,1.3-1.3l0.1-0.4l-2.3-5.8h1L56,9.1
			c0.2,0.5,0.4,1.1,0.6,1.6h0c0.2-0.5,0.3-1.1,0.5-1.6l1-3.2h1L57,12.2c-0.4,1.2-1,2-2.2,2C54.5,14.3,54.3,14.2,54.1,14.1z"/>
		<path class="st2" d="M60.1,6.8c0-0.5,0.3-0.8,0.7-0.8c0.4,0,0.7,0.3,0.7,0.8c0,0.4-0.3,0.7-0.7,0.7C60.4,7.6,60.1,7.3,60.1,6.8z
			 M60.1,11.1c0-0.5,0.3-0.8,0.7-0.8c0.4,0,0.7,0.3,0.7,0.8c0,0.4-0.3,0.7-0.7,0.7C60.4,11.9,60.1,11.6,60.1,11.1z"/>
	</g>
</g>
<g id="text_x5F_fr" class="st3">
	<g class="st4">
		<path class="st2" d="M3.3,3.9h1.1l2.7,7.9H6L4.6,7.4C4.3,6.5,4.1,5.6,3.8,4.7h0C3.5,5.6,3.3,6.5,3,7.4l-1.4,4.4h-1L3.3,3.9z
			 M2,8.6h3.6v0.8H2V8.6z"/>
		<path class="st2" d="M8,10.6V3.2h1v7.4c0,0.3,0.1,0.4,0.3,0.4c0.1,0,0.1,0,0.2,0l0.1,0.8c-0.1,0.1-0.3,0.1-0.6,0.1
			C8.3,11.9,8,11.4,8,10.6z"/>
		<path class="st2" d="M10.9,4.1c0-0.4,0.3-0.6,0.7-0.6s0.7,0.2,0.7,0.6c0,0.4-0.3,0.6-0.7,0.6S10.9,4.5,10.9,4.1z M11.1,5.9h1v5.8
			h-1V5.9z"/>
		<path class="st2" d="M14,5.9h0.8l0.1,0.8h0c0.5-0.6,1.1-1,1.8-1c0.9,0,1.4,0.4,1.6,1.1c0.6-0.7,1.2-1.1,1.9-1.1
			c1.2,0,1.8,0.8,1.8,2.3v3.7h-1V8.2c0-1.1-0.3-1.6-1.1-1.6c-0.5,0-0.9,0.3-1.5,0.9v4.2h-1V8.2c0-1.1-0.3-1.6-1.1-1.6
			c-0.4,0-0.9,0.3-1.5,0.9v4.2h-1V5.9z"/>
		<path class="st2" d="M23.6,8.8c0-1.9,1.3-3.1,2.6-3.1c1.5,0,2.3,1.1,2.3,2.7c0,0.2,0,0.4,0,0.6h-3.9c0.1,1.2,0.8,2,1.9,2
			c0.6,0,1-0.2,1.5-0.5l0.4,0.6c-0.5,0.3-1.1,0.6-1.9,0.6C24.8,11.9,23.6,10.8,23.6,8.8z M27.6,8.4c0-1.2-0.5-1.8-1.4-1.8
			c-0.8,0-1.6,0.7-1.7,1.8H27.6z"/>
		<path class="st2" d="M29.9,5.9h0.8l0.1,0.8h0c0.6-0.5,1.2-1,2-1c1.2,0,1.8,0.8,1.8,2.3v3.7h-1V8.2c0-1.1-0.3-1.6-1.1-1.6
			c-0.6,0-1,0.3-1.6,0.9v4.2h-1V5.9z"/>
		<path class="st2" d="M36.7,9.9V6.7h-0.9V6l0.9-0.1l0.1-1.6h0.8v1.6h1.6v0.8h-1.6V10c0,0.7,0.2,1.1,0.9,1.1c0.2,0,0.5-0.1,0.7-0.2
			l0.2,0.7c-0.3,0.1-0.7,0.2-1.1,0.2C37.1,11.9,36.7,11.1,36.7,9.9z"/>
		<path class="st2" d="M40,8.8c0-1.9,1.3-3.1,2.6-3.1c1.5,0,2.3,1.1,2.3,2.7c0,0.2,0,0.4,0,0.6h-3.9c0.1,1.2,0.8,2,1.9,2
			c0.6,0,1-0.2,1.5-0.5l0.4,0.6c-0.5,0.3-1.1,0.6-1.9,0.6C41.2,11.9,40,10.8,40,8.8z M44,8.4c0-1.2-0.5-1.8-1.4-1.8
			c-0.8,0-1.6,0.7-1.7,1.8H44z M41.9,4.4l1.7-2L44.3,3l-1.9,1.8L41.9,4.4z"/>
		<path class="st2" d="M48.7,5.9h0.8l0.1,0.7h0c0.5-0.4,1.2-0.8,1.9-0.8c1.5,0,2.3,1.2,2.3,3c0,2-1.2,3.1-2.5,3.1
			c-0.5,0-1.1-0.2-1.6-0.7l0,1v2h-1V5.9z M52.8,8.8c0-1.3-0.4-2.1-1.5-2.1c-0.5,0-1,0.3-1.6,0.8v3.1c0.5,0.4,1,0.6,1.4,0.6
			C52.1,11.1,52.8,10.2,52.8,8.8z"/>
		<path class="st2" d="M54.9,10.2c0-1.3,1.1-1.9,3.6-2.2c0-0.8-0.3-1.5-1.2-1.5c-0.7,0-1.3,0.3-1.7,0.6l-0.4-0.7
			c0.5-0.4,1.4-0.8,2.3-0.8c1.4,0,2,0.9,2,2.4v3.6h-0.8l-0.1-0.7h0c-0.6,0.5-1.2,0.8-1.9,0.8C55.6,11.9,54.9,11.3,54.9,10.2z
			 M58.5,10.3V8.7c-2,0.2-2.6,0.7-2.6,1.5c0,0.7,0.4,0.9,1,0.9C57.4,11.1,57.9,10.8,58.5,10.3z"/>
		<path class="st2" d="M61.3,5.9h0.8L62.2,7h0c0.4-0.7,1-1.2,1.7-1.2c0.3,0,0.4,0,0.6,0.1l-0.2,0.9c-0.2-0.1-0.3-0.1-0.6-0.1
			c-0.5,0-1.1,0.4-1.5,1.3v3.7h-1V5.9z"/>
		<path class="st2" d="M67.6,6.8c0-0.5,0.3-0.8,0.7-0.8s0.7,0.3,0.7,0.8c0,0.4-0.3,0.7-0.7,0.7S67.6,7.3,67.6,6.8z M67.6,11.1
			c0-0.5,0.3-0.8,0.7-0.8s0.7,0.3,0.7,0.8c0,0.4-0.3,0.7-0.7,0.7S67.6,11.6,67.6,11.1z"/>
	</g>
</g>
</svg>
